<?xml version="1.0" encoding="utf-8"?>
<!-- Generator: Adobe Illustrator 19.1.0, SVG Export Plug-In . SVG Version: 6.00 Build 0)  -->
<!DOCTYPE svg PUBLIC "-//W3C//DTD SVG 1.1//EN" "http://www.w3.org/Graphics/SVG/1.1/DTD/svg11.dtd">
<svg version="1.1" id="Layer_1" xmlns="http://www.w3.org/2000/svg" xmlns:xlink="http://www.w3.org/1999/xlink" x="0px" y="0px"
	 viewBox="0 0 489 103.7" style="enable-background:new 0 0 489 103.7;" xml:space="preserve">
<g style="opacity:0.8;">
	<path d="M121.4,51.2c0-20.4,13.8-35.7,34.2-35.7s34.3,15.3,34.3,35.7c0,10.2-3.5,19.1-9.5,25.5l6.5,6.9l-5.9,5.2l-6.7-7.1
		c-5.2,3.3-11.6,5.2-18.7,5.2C135.2,86.8,121.4,71.5,121.4,51.2z M168.7,75.6L158.9,65l6-5.1l9.7,10.5c4-5,6.4-11.7,6.4-19.3
		c0-16.1-10-28-25.4-28c-15.5,0-25.3,11.9-25.3,28c0,16,9.8,28,25.3,28C160.5,79.2,165,77.9,168.7,75.6z"/>
	<path d="M266.3,85.6L251.1,30l-15.2,55.6h-9.3l-19.6-68.9h9.5l15.3,57.5l15.8-57.5h7.1l15.8,57.5l15.2-57.5h9.6l-19.7,68.9H266.3z"
		/>
	<path d="M317.2,85.6V16.6h8.6v68.9H317.2z"/>
	<path d="M353.2,85.6V16.6h8.6v61.3h32v7.6H353.2z"/>
	<path d="M457.5,85.6l-17.5-27.4h-13.8v27.4h-8.6V16.6h27.7c12.6,0,21.7,8.1,21.7,20.8c0,12.4-8.6,19.2-18,20l18.6,28.1H457.5z
		 M458.2,37.4c0-7.9-5.7-13.1-13.8-13.1h-18.1v26.4h18.1C452.5,50.6,458.2,45.2,458.2,37.4z"/>
</g>
<g>
	<polygon style="fill:#00AA9D;" points="27.4,93.6 55,48.3 42.8,28.4 16.3,74.4 	"/>
</g>
<g>
	<polygon style="fill:#F26B75;" points="82.4,92.8 93.6,73.7 67.4,28.6 55,48.3 	"/>
</g>
<g>
	<polygon style="fill:#092E2A;" points="55,48.3 67.4,28.6 55.2,7.1 42.8,28.4 	"/>
</g>
</svg>
